<?xml version="1.0" standalone="no"?>
<!DOCTYPE svg PUBLIC "-//W3C//DTD SVG 20010904//EN"
 "http://www.w3.org/TR/2001/REC-SVG-20010904/DTD/svg10.dtd">
<svg version="1.0" xmlns="http://www.w3.org/2000/svg"
 width="1200.000000pt" height="900.000000pt" viewBox="0 0 1200.000000 900.000000"
 preserveAspectRatio="xMidYMid meet">

<g transform="translate(0.000000,900.000000) scale(0.100000,-0.100000)"
fill="#000000" stroke="none">
<path d="M0 4500 l0 -4500 6000 0 6000 0 0 4500 0 4500 -6000 0 -6000 0 0
-4500z m4280 1843 c284 -56 528 -248 660 -518 49 -99 90 -235 90 -294 0 -17 5
-31 10 -31 6 0 10 15 10 33 0 62 51 220 101 316 279 534 975 682 1446 307 131
-105 234 -243 297 -399 30 -75 56 -178 56 -224 0 -18 5 -33 10 -33 6 0 10 12
10 28 0 61 43 202 90 297 258 522 901 699 1388 383 213 -139 365 -367 418
-629 21 -106 15 -311 -14 -414 -128 -466 -566 -770 -1033 -715 -178 20 -332
81 -474 187 -129 96 -224 214 -295 366 -39 83 -80 226 -80 280 0 48 -17 20
-24 -40 -9 -73 -55 -211 -97 -288 -147 -270 -400 -452 -697 -499 l-77 -13 55
-8 c319 -46 586 -239 730 -530 63 -126 90 -230 97 -370 7 -137 -8 -241 -51
-367 -47 -139 -114 -245 -221 -354 -136 -139 -267 -215 -456 -266 -119 -32
-336 -32 -459 1 -319 85 -565 307 -675 612 -54 152 -55 162 -56 1193 -1 808
-3 940 -14 881 -91 -496 -554 -843 -1047 -785 -475 55 -832 432 -855 902 -12
239 53 450 194 635 225 297 589 431 963 356z"/>
</g>
</svg>
